<mxfile host="www.draw.io" modified="2020-01-24T10:56:37.605Z" agent="Mozilla/5.0 (Windows NT 10.0; Win64; x64) AppleWebKit/537.36 (KHTML, like Gecko) Chrome/79.0.3945.130 Safari/537.36" etag="likgEiBoFA-EEts6lN9u" version="12.5.6" type="github" pages="2">
  <diagram id="C5RBs43oDa-KdzZeNtuy" name="Page-1">
    <mxGraphModel dx="868" dy="482" grid="1" gridSize="10" guides="1" tooltips="1" connect="1" arrows="1" fold="1" page="1" pageScale="1" pageWidth="827" pageHeight="1169" math="0" shadow="0">
      <root>
        <mxCell id="WIyWlLk6GJQsqaUBKTNV-0"/>
        <mxCell id="WIyWlLk6GJQsqaUBKTNV-1" parent="WIyWlLk6GJQsqaUBKTNV-0"/>
        <mxCell id="zkfFHV4jXpPFQw0GAbJ--56" value="UserProfile" style="swimlane;fontStyle=1;childLayout=stackLayout;horizontal=1;startSize=26;horizontalStack=0;resizeParent=1;resizeLast=0;collapsible=1;marginBottom=0;rounded=0;shadow=0;strokeWidth=1;" parent="WIyWlLk6GJQsqaUBKTNV-1" vertex="1">
          <mxGeometry x="440" y="120" width="160" height="160" as="geometry">
            <mxRectangle x="260" y="80" width="160" height="26" as="alternateBounds"/>
          </mxGeometry>
        </mxCell>
        <mxCell id="zkfFHV4jXpPFQw0GAbJ--57" value="UserId" style="shape=partialRectangle;top=0;left=0;right=0;bottom=1;align=left;verticalAlign=top;fillColor=none;spacingLeft=40;spacingRight=4;overflow=hidden;rotatable=0;points=[[0,0.5],[1,0.5]];portConstraint=eastwest;dropTarget=0;rounded=0;shadow=0;strokeWidth=1;fontStyle=4" parent="zkfFHV4jXpPFQw0GAbJ--56" vertex="1">
          <mxGeometry y="26" width="160" height="26" as="geometry"/>
        </mxCell>
        <mxCell id="zkfFHV4jXpPFQw0GAbJ--58" value="FK1" style="shape=partialRectangle;top=0;left=0;bottom=0;fillColor=none;align=left;verticalAlign=top;spacingLeft=4;spacingRight=4;overflow=hidden;rotatable=0;points=[];portConstraint=eastwest;part=1;" parent="zkfFHV4jXpPFQw0GAbJ--57" vertex="1" connectable="0">
          <mxGeometry width="36" height="26" as="geometry"/>
        </mxCell>
        <mxCell id="zkfFHV4jXpPFQw0GAbJ--59" value="FirstName" style="shape=partialRectangle;top=0;left=0;right=0;bottom=0;align=left;verticalAlign=top;fillColor=none;spacingLeft=40;spacingRight=4;overflow=hidden;rotatable=0;points=[[0,0.5],[1,0.5]];portConstraint=eastwest;dropTarget=0;rounded=0;shadow=0;strokeWidth=1;" parent="zkfFHV4jXpPFQw0GAbJ--56" vertex="1">
          <mxGeometry y="52" width="160" height="26" as="geometry"/>
        </mxCell>
        <mxCell id="zkfFHV4jXpPFQw0GAbJ--60" value="" style="shape=partialRectangle;top=0;left=0;bottom=0;fillColor=none;align=left;verticalAlign=top;spacingLeft=4;spacingRight=4;overflow=hidden;rotatable=0;points=[];portConstraint=eastwest;part=1;" parent="zkfFHV4jXpPFQw0GAbJ--59" vertex="1" connectable="0">
          <mxGeometry width="36" height="26" as="geometry"/>
        </mxCell>
        <mxCell id="zkfFHV4jXpPFQw0GAbJ--61" value="LastName" style="shape=partialRectangle;top=0;left=0;right=0;bottom=0;align=left;verticalAlign=top;fillColor=none;spacingLeft=40;spacingRight=4;overflow=hidden;rotatable=0;points=[[0,0.5],[1,0.5]];portConstraint=eastwest;dropTarget=0;rounded=0;shadow=0;strokeWidth=1;" parent="zkfFHV4jXpPFQw0GAbJ--56" vertex="1">
          <mxGeometry y="78" width="160" height="26" as="geometry"/>
        </mxCell>
        <mxCell id="zkfFHV4jXpPFQw0GAbJ--62" value="" style="shape=partialRectangle;top=0;left=0;bottom=0;fillColor=none;align=left;verticalAlign=top;spacingLeft=4;spacingRight=4;overflow=hidden;rotatable=0;points=[];portConstraint=eastwest;part=1;" parent="zkfFHV4jXpPFQw0GAbJ--61" vertex="1" connectable="0">
          <mxGeometry width="36" height="26" as="geometry"/>
        </mxCell>
        <mxCell id="5uAoBxiyu3MA_FHm3ULM-23" value="Mobile" style="shape=partialRectangle;top=0;left=0;right=0;bottom=0;align=left;verticalAlign=top;fillColor=none;spacingLeft=40;spacingRight=4;overflow=hidden;rotatable=0;points=[[0,0.5],[1,0.5]];portConstraint=eastwest;dropTarget=0;rounded=0;shadow=0;strokeWidth=1;" parent="zkfFHV4jXpPFQw0GAbJ--56" vertex="1">
          <mxGeometry y="104" width="160" height="26" as="geometry"/>
        </mxCell>
        <mxCell id="5uAoBxiyu3MA_FHm3ULM-24" value="" style="shape=partialRectangle;top=0;left=0;bottom=0;fillColor=none;align=left;verticalAlign=top;spacingLeft=4;spacingRight=4;overflow=hidden;rotatable=0;points=[];portConstraint=eastwest;part=1;" parent="5uAoBxiyu3MA_FHm3ULM-23" vertex="1" connectable="0">
          <mxGeometry width="36" height="26" as="geometry"/>
        </mxCell>
        <mxCell id="5uAoBxiyu3MA_FHm3ULM-25" value="Tokens" style="shape=partialRectangle;top=0;left=0;right=0;bottom=0;align=left;verticalAlign=top;fillColor=none;spacingLeft=40;spacingRight=4;overflow=hidden;rotatable=0;points=[[0,0.5],[1,0.5]];portConstraint=eastwest;dropTarget=0;rounded=0;shadow=0;strokeWidth=1;" parent="zkfFHV4jXpPFQw0GAbJ--56" vertex="1">
          <mxGeometry y="130" width="160" height="30" as="geometry"/>
        </mxCell>
        <mxCell id="5uAoBxiyu3MA_FHm3ULM-26" value="" style="shape=partialRectangle;top=0;left=0;bottom=0;fillColor=none;align=left;verticalAlign=top;spacingLeft=4;spacingRight=4;overflow=hidden;rotatable=0;points=[];portConstraint=eastwest;part=1;" parent="5uAoBxiyu3MA_FHm3ULM-25" vertex="1" connectable="0">
          <mxGeometry width="36" height="29.999999999999996" as="geometry"/>
        </mxCell>
        <mxCell id="5uAoBxiyu3MA_FHm3ULM-2" value="User" style="swimlane;fontStyle=0;childLayout=stackLayout;horizontal=1;startSize=26;fillColor=#e0e0e0;horizontalStack=0;resizeParent=1;resizeParentMax=0;resizeLast=0;collapsible=1;marginBottom=0;swimlaneFillColor=#ffffff;align=center;fontSize=14;" parent="WIyWlLk6GJQsqaUBKTNV-1" vertex="1">
          <mxGeometry x="10" y="50" width="160" height="156" as="geometry"/>
        </mxCell>
        <mxCell id="5uAoBxiyu3MA_FHm3ULM-3" value="UserId" style="shape=partialRectangle;top=0;left=0;right=0;bottom=1;align=left;verticalAlign=middle;fillColor=none;spacingLeft=34;spacingRight=4;overflow=hidden;rotatable=0;points=[[0,0.5],[1,0.5]];portConstraint=eastwest;dropTarget=0;fontStyle=5;fontSize=12;" parent="5uAoBxiyu3MA_FHm3ULM-2" vertex="1">
          <mxGeometry y="26" width="160" height="30" as="geometry"/>
        </mxCell>
        <mxCell id="5uAoBxiyu3MA_FHm3ULM-4" value="PK" style="shape=partialRectangle;top=0;left=0;bottom=0;fillColor=none;align=left;verticalAlign=middle;spacingLeft=4;spacingRight=4;overflow=hidden;rotatable=0;points=[];portConstraint=eastwest;part=1;fontSize=12;" parent="5uAoBxiyu3MA_FHm3ULM-3" vertex="1" connectable="0">
          <mxGeometry width="30" height="30" as="geometry"/>
        </mxCell>
        <mxCell id="5uAoBxiyu3MA_FHm3ULM-5" value="UserName" style="shape=partialRectangle;top=0;left=0;right=0;bottom=0;align=left;verticalAlign=top;fillColor=none;spacingLeft=34;spacingRight=4;overflow=hidden;rotatable=0;points=[[0,0.5],[1,0.5]];portConstraint=eastwest;dropTarget=0;fontSize=12;" parent="5uAoBxiyu3MA_FHm3ULM-2" vertex="1">
          <mxGeometry y="56" width="160" height="26" as="geometry"/>
        </mxCell>
        <mxCell id="5uAoBxiyu3MA_FHm3ULM-6" value="" style="shape=partialRectangle;top=0;left=0;bottom=0;fillColor=none;align=left;verticalAlign=top;spacingLeft=4;spacingRight=4;overflow=hidden;rotatable=0;points=[];portConstraint=eastwest;part=1;fontSize=12;" parent="5uAoBxiyu3MA_FHm3ULM-5" vertex="1" connectable="0">
          <mxGeometry width="30" height="26" as="geometry"/>
        </mxCell>
        <mxCell id="5uAoBxiyu3MA_FHm3ULM-7" value="Email" style="shape=partialRectangle;top=0;left=0;right=0;bottom=0;align=left;verticalAlign=top;fillColor=none;spacingLeft=34;spacingRight=4;overflow=hidden;rotatable=0;points=[[0,0.5],[1,0.5]];portConstraint=eastwest;dropTarget=0;fontSize=12;" parent="5uAoBxiyu3MA_FHm3ULM-2" vertex="1">
          <mxGeometry y="82" width="160" height="26" as="geometry"/>
        </mxCell>
        <mxCell id="5uAoBxiyu3MA_FHm3ULM-8" value="" style="shape=partialRectangle;top=0;left=0;bottom=0;fillColor=none;align=left;verticalAlign=top;spacingLeft=4;spacingRight=4;overflow=hidden;rotatable=0;points=[];portConstraint=eastwest;part=1;fontSize=12;" parent="5uAoBxiyu3MA_FHm3ULM-7" vertex="1" connectable="0">
          <mxGeometry width="30" height="26" as="geometry"/>
        </mxCell>
        <mxCell id="5uAoBxiyu3MA_FHm3ULM-9" value="Password" style="shape=partialRectangle;top=0;left=0;right=0;bottom=0;align=left;verticalAlign=top;fillColor=none;spacingLeft=34;spacingRight=4;overflow=hidden;rotatable=0;points=[[0,0.5],[1,0.5]];portConstraint=eastwest;dropTarget=0;fontSize=12;" parent="5uAoBxiyu3MA_FHm3ULM-2" vertex="1">
          <mxGeometry y="108" width="160" height="22" as="geometry"/>
        </mxCell>
        <mxCell id="5uAoBxiyu3MA_FHm3ULM-10" value="" style="shape=partialRectangle;top=0;left=0;bottom=0;fillColor=none;align=left;verticalAlign=top;spacingLeft=4;spacingRight=4;overflow=hidden;rotatable=0;points=[];portConstraint=eastwest;part=1;fontSize=12;" parent="5uAoBxiyu3MA_FHm3ULM-9" vertex="1" connectable="0">
          <mxGeometry width="30" height="22" as="geometry"/>
        </mxCell>
        <mxCell id="5uAoBxiyu3MA_FHm3ULM-13" value="Created Date" style="shape=partialRectangle;top=0;left=0;right=0;bottom=0;align=left;verticalAlign=top;fillColor=none;spacingLeft=34;spacingRight=4;overflow=hidden;rotatable=0;points=[[0,0.5],[1,0.5]];portConstraint=eastwest;dropTarget=0;fontSize=12;" parent="5uAoBxiyu3MA_FHm3ULM-2" vertex="1">
          <mxGeometry y="130" width="160" height="26" as="geometry"/>
        </mxCell>
        <mxCell id="5uAoBxiyu3MA_FHm3ULM-14" value="" style="shape=partialRectangle;top=0;left=0;bottom=0;fillColor=none;align=left;verticalAlign=top;spacingLeft=4;spacingRight=4;overflow=hidden;rotatable=0;points=[];portConstraint=eastwest;part=1;fontSize=12;" parent="5uAoBxiyu3MA_FHm3ULM-13" vertex="1" connectable="0">
          <mxGeometry width="30" height="26" as="geometry"/>
        </mxCell>
        <mxCell id="5uAoBxiyu3MA_FHm3ULM-30" value="" style="edgeStyle=entityRelationEdgeStyle;fontSize=12;html=1;endArrow=ERmandOne;startArrow=ERmandOne;exitX=1;exitY=0.5;exitDx=0;exitDy=0;" parent="WIyWlLk6GJQsqaUBKTNV-1" source="5uAoBxiyu3MA_FHm3ULM-9" edge="1">
          <mxGeometry width="100" height="100" relative="1" as="geometry">
            <mxPoint x="320" y="240" as="sourcePoint"/>
            <mxPoint x="440" y="170" as="targetPoint"/>
          </mxGeometry>
        </mxCell>
        <mxCell id="HH7dCh-cjH_V-bheNuH_-8" value="UserTrialStatus" style="swimlane;fontStyle=0;childLayout=stackLayout;horizontal=1;startSize=26;fillColor=#e0e0e0;horizontalStack=0;resizeParent=1;resizeParentMax=0;resizeLast=0;collapsible=1;marginBottom=0;swimlaneFillColor=#ffffff;align=center;fontSize=14;" parent="WIyWlLk6GJQsqaUBKTNV-1" vertex="1">
          <mxGeometry x="470" y="370" width="180" height="280" as="geometry"/>
        </mxCell>
        <mxCell id="HH7dCh-cjH_V-bheNuH_-50" value="UserTrialStatus Id" style="shape=partialRectangle;top=0;left=0;right=0;bottom=0;align=left;verticalAlign=middle;fillColor=none;spacingLeft=60;spacingRight=4;overflow=hidden;rotatable=0;points=[[0,0.5],[1,0.5]];portConstraint=eastwest;dropTarget=0;fontStyle=5;fontSize=12;" parent="HH7dCh-cjH_V-bheNuH_-8" vertex="1">
          <mxGeometry y="26" width="180" height="30" as="geometry"/>
        </mxCell>
        <mxCell id="HH7dCh-cjH_V-bheNuH_-51" value="PK" style="shape=partialRectangle;fontStyle=1;top=0;left=0;bottom=0;fillColor=none;align=left;verticalAlign=middle;spacingLeft=4;spacingRight=4;overflow=hidden;rotatable=0;points=[];portConstraint=eastwest;part=1;fontSize=12;" parent="HH7dCh-cjH_V-bheNuH_-50" vertex="1" connectable="0">
          <mxGeometry width="56" height="30" as="geometry"/>
        </mxCell>
        <mxCell id="HH7dCh-cjH_V-bheNuH_-9" value="UserId" style="shape=partialRectangle;top=0;left=0;right=0;bottom=0;align=left;verticalAlign=middle;fillColor=none;spacingLeft=60;spacingRight=4;overflow=hidden;rotatable=0;points=[[0,0.5],[1,0.5]];portConstraint=eastwest;dropTarget=0;fontStyle=5;fontSize=12;" parent="HH7dCh-cjH_V-bheNuH_-8" vertex="1">
          <mxGeometry y="56" width="180" height="30" as="geometry"/>
        </mxCell>
        <mxCell id="HH7dCh-cjH_V-bheNuH_-10" value="FK1" style="shape=partialRectangle;fontStyle=1;top=0;left=0;bottom=0;fillColor=none;align=left;verticalAlign=middle;spacingLeft=4;spacingRight=4;overflow=hidden;rotatable=0;points=[];portConstraint=eastwest;part=1;fontSize=12;" parent="HH7dCh-cjH_V-bheNuH_-9" vertex="1" connectable="0">
          <mxGeometry width="56" height="30" as="geometry"/>
        </mxCell>
        <mxCell id="HH7dCh-cjH_V-bheNuH_-11" value="Trail Id" style="shape=partialRectangle;top=0;left=0;right=0;bottom=1;align=left;verticalAlign=middle;fillColor=none;spacingLeft=60;spacingRight=4;overflow=hidden;rotatable=0;points=[[0,0.5],[1,0.5]];portConstraint=eastwest;dropTarget=0;fontStyle=5;fontSize=12;" parent="HH7dCh-cjH_V-bheNuH_-8" vertex="1">
          <mxGeometry y="86" width="180" height="30" as="geometry"/>
        </mxCell>
        <mxCell id="HH7dCh-cjH_V-bheNuH_-12" value="FK2" style="shape=partialRectangle;fontStyle=1;top=0;left=0;bottom=0;fillColor=none;align=left;verticalAlign=middle;spacingLeft=4;spacingRight=4;overflow=hidden;rotatable=0;points=[];portConstraint=eastwest;part=1;fontSize=12;" parent="HH7dCh-cjH_V-bheNuH_-11" vertex="1" connectable="0">
          <mxGeometry width="56" height="30" as="geometry"/>
        </mxCell>
        <mxCell id="HH7dCh-cjH_V-bheNuH_-13" value="Progress Level&#xa;&#xa;Water Level&#xa;&#xa;Start Time&#xa;&#xa;Pause Time&#xa;&#xa;End  Time&#xa;&#xa;Penalty Time" style="shape=partialRectangle;top=0;left=0;right=0;bottom=0;align=left;verticalAlign=top;fillColor=none;spacingLeft=60;spacingRight=4;overflow=hidden;rotatable=0;points=[[0,0.5],[1,0.5]];portConstraint=eastwest;dropTarget=0;fontSize=12;" parent="HH7dCh-cjH_V-bheNuH_-8" vertex="1">
          <mxGeometry y="116" width="180" height="164" as="geometry"/>
        </mxCell>
        <mxCell id="HH7dCh-cjH_V-bheNuH_-14" value="" style="shape=partialRectangle;top=0;left=0;bottom=0;fillColor=none;align=left;verticalAlign=top;spacingLeft=4;spacingRight=4;overflow=hidden;rotatable=0;points=[];portConstraint=eastwest;part=1;fontSize=12;" parent="HH7dCh-cjH_V-bheNuH_-13" vertex="1" connectable="0">
          <mxGeometry width="56" height="164" as="geometry"/>
        </mxCell>
        <mxCell id="HH7dCh-cjH_V-bheNuH_-18" value="Trail" style="swimlane;fontStyle=0;childLayout=stackLayout;horizontal=1;startSize=26;fillColor=#e0e0e0;horizontalStack=0;resizeParent=1;resizeParentMax=0;resizeLast=0;collapsible=1;marginBottom=0;swimlaneFillColor=#ffffff;align=center;fontSize=14;" parent="WIyWlLk6GJQsqaUBKTNV-1" vertex="1">
          <mxGeometry x="30" y="350" width="160" height="204" as="geometry"/>
        </mxCell>
        <mxCell id="HH7dCh-cjH_V-bheNuH_-19" value="Trail Id" style="shape=partialRectangle;top=0;left=0;right=0;bottom=1;align=left;verticalAlign=middle;fillColor=none;spacingLeft=34;spacingRight=4;overflow=hidden;rotatable=0;points=[[0,0.5],[1,0.5]];portConstraint=eastwest;dropTarget=0;fontStyle=5;fontSize=12;" parent="HH7dCh-cjH_V-bheNuH_-18" vertex="1">
          <mxGeometry y="26" width="160" height="30" as="geometry"/>
        </mxCell>
        <mxCell id="HH7dCh-cjH_V-bheNuH_-20" value="PK" style="shape=partialRectangle;top=0;left=0;bottom=0;fillColor=none;align=left;verticalAlign=middle;spacingLeft=4;spacingRight=4;overflow=hidden;rotatable=0;points=[];portConstraint=eastwest;part=1;fontSize=12;" parent="HH7dCh-cjH_V-bheNuH_-19" vertex="1" connectable="0">
          <mxGeometry width="30" height="30" as="geometry"/>
        </mxCell>
        <mxCell id="HH7dCh-cjH_V-bheNuH_-21" value="Country" style="shape=partialRectangle;top=0;left=0;right=0;bottom=0;align=left;verticalAlign=top;fillColor=none;spacingLeft=34;spacingRight=4;overflow=hidden;rotatable=0;points=[[0,0.5],[1,0.5]];portConstraint=eastwest;dropTarget=0;fontSize=12;" parent="HH7dCh-cjH_V-bheNuH_-18" vertex="1">
          <mxGeometry y="56" width="160" height="26" as="geometry"/>
        </mxCell>
        <mxCell id="HH7dCh-cjH_V-bheNuH_-22" value="" style="shape=partialRectangle;top=0;left=0;bottom=0;fillColor=none;align=left;verticalAlign=top;spacingLeft=4;spacingRight=4;overflow=hidden;rotatable=0;points=[];portConstraint=eastwest;part=1;fontSize=12;" parent="HH7dCh-cjH_V-bheNuH_-21" vertex="1" connectable="0">
          <mxGeometry width="30" height="26" as="geometry"/>
        </mxCell>
        <mxCell id="HH7dCh-cjH_V-bheNuH_-23" value="City" style="shape=partialRectangle;top=0;left=0;right=0;bottom=0;align=left;verticalAlign=top;fillColor=none;spacingLeft=34;spacingRight=4;overflow=hidden;rotatable=0;points=[[0,0.5],[1,0.5]];portConstraint=eastwest;dropTarget=0;fontSize=12;" parent="HH7dCh-cjH_V-bheNuH_-18" vertex="1">
          <mxGeometry y="82" width="160" height="26" as="geometry"/>
        </mxCell>
        <mxCell id="HH7dCh-cjH_V-bheNuH_-24" value="" style="shape=partialRectangle;top=0;left=0;bottom=0;fillColor=none;align=left;verticalAlign=top;spacingLeft=4;spacingRight=4;overflow=hidden;rotatable=0;points=[];portConstraint=eastwest;part=1;fontSize=12;" parent="HH7dCh-cjH_V-bheNuH_-23" vertex="1" connectable="0">
          <mxGeometry width="30" height="26" as="geometry"/>
        </mxCell>
        <mxCell id="HH7dCh-cjH_V-bheNuH_-25" value="Created Date" style="shape=partialRectangle;top=0;left=0;right=0;bottom=0;align=left;verticalAlign=top;fillColor=none;spacingLeft=34;spacingRight=4;overflow=hidden;rotatable=0;points=[[0,0.5],[1,0.5]];portConstraint=eastwest;dropTarget=0;fontSize=12;" parent="HH7dCh-cjH_V-bheNuH_-18" vertex="1">
          <mxGeometry y="108" width="160" height="32" as="geometry"/>
        </mxCell>
        <mxCell id="HH7dCh-cjH_V-bheNuH_-26" value="" style="shape=partialRectangle;top=0;left=0;bottom=0;fillColor=none;align=left;verticalAlign=top;spacingLeft=4;spacingRight=4;overflow=hidden;rotatable=0;points=[];portConstraint=eastwest;part=1;fontSize=12;" parent="HH7dCh-cjH_V-bheNuH_-25" vertex="1" connectable="0">
          <mxGeometry width="30" height="32" as="geometry"/>
        </mxCell>
        <mxCell id="HH7dCh-cjH_V-bheNuH_-39" value="Created Date" style="shape=partialRectangle;top=0;left=0;right=0;bottom=0;align=left;verticalAlign=top;fillColor=none;spacingLeft=34;spacingRight=4;overflow=hidden;rotatable=0;points=[[0,0.5],[1,0.5]];portConstraint=eastwest;dropTarget=0;fontSize=12;" parent="HH7dCh-cjH_V-bheNuH_-18" vertex="1">
          <mxGeometry y="140" width="160" height="32" as="geometry"/>
        </mxCell>
        <mxCell id="HH7dCh-cjH_V-bheNuH_-40" value="" style="shape=partialRectangle;top=0;left=0;bottom=0;fillColor=none;align=left;verticalAlign=top;spacingLeft=4;spacingRight=4;overflow=hidden;rotatable=0;points=[];portConstraint=eastwest;part=1;fontSize=12;" parent="HH7dCh-cjH_V-bheNuH_-39" vertex="1" connectable="0">
          <mxGeometry width="30" height="32" as="geometry"/>
        </mxCell>
        <mxCell id="HH7dCh-cjH_V-bheNuH_-33" value="Status" style="shape=partialRectangle;top=0;left=0;right=0;bottom=0;align=left;verticalAlign=top;fillColor=none;spacingLeft=34;spacingRight=4;overflow=hidden;rotatable=0;points=[[0,0.5],[1,0.5]];portConstraint=eastwest;dropTarget=0;fontSize=12;" parent="HH7dCh-cjH_V-bheNuH_-18" vertex="1">
          <mxGeometry y="172" width="160" height="32" as="geometry"/>
        </mxCell>
        <mxCell id="HH7dCh-cjH_V-bheNuH_-34" value="" style="shape=partialRectangle;top=0;left=0;bottom=0;fillColor=none;align=left;verticalAlign=top;spacingLeft=4;spacingRight=4;overflow=hidden;rotatable=0;points=[];portConstraint=eastwest;part=1;fontSize=12;" parent="HH7dCh-cjH_V-bheNuH_-33" vertex="1" connectable="0">
          <mxGeometry width="30" height="32" as="geometry"/>
        </mxCell>
        <mxCell id="HH7dCh-cjH_V-bheNuH_-45" value="" style="fontSize=12;html=1;endArrow=ERoneToMany;entryX=0;entryY=0.5;entryDx=0;entryDy=0;exitX=0;exitY=0.5;exitDx=0;exitDy=0;" parent="WIyWlLk6GJQsqaUBKTNV-1" source="zkfFHV4jXpPFQw0GAbJ--57" target="HH7dCh-cjH_V-bheNuH_-9" edge="1">
          <mxGeometry width="100" height="100" relative="1" as="geometry">
            <mxPoint x="400" y="159" as="sourcePoint"/>
            <mxPoint x="360" y="330" as="targetPoint"/>
            <Array as="points">
              <mxPoint x="340" y="159"/>
              <mxPoint x="340" y="420"/>
              <mxPoint x="340" y="441"/>
            </Array>
          </mxGeometry>
        </mxCell>
        <mxCell id="HH7dCh-cjH_V-bheNuH_-52" value="Transaction" style="swimlane;fontStyle=0;childLayout=stackLayout;horizontal=1;startSize=26;fillColor=#e0e0e0;horizontalStack=0;resizeParent=1;resizeParentMax=0;resizeLast=0;collapsible=1;marginBottom=0;swimlaneFillColor=#ffffff;align=center;fontSize=14;" parent="WIyWlLk6GJQsqaUBKTNV-1" vertex="1">
          <mxGeometry x="70" y="670" width="150" height="206" as="geometry"/>
        </mxCell>
        <mxCell id="HH7dCh-cjH_V-bheNuH_-53" value="Transaction Id" style="shape=partialRectangle;top=0;left=0;right=0;bottom=0;align=left;verticalAlign=middle;fillColor=none;spacingLeft=60;spacingRight=4;overflow=hidden;rotatable=0;points=[[0,0.5],[1,0.5]];portConstraint=eastwest;dropTarget=0;fontStyle=5;fontSize=12;" parent="HH7dCh-cjH_V-bheNuH_-52" vertex="1">
          <mxGeometry y="26" width="150" height="30" as="geometry"/>
        </mxCell>
        <mxCell id="HH7dCh-cjH_V-bheNuH_-54" value="PK" style="shape=partialRectangle;fontStyle=1;top=0;left=0;bottom=0;fillColor=none;align=left;verticalAlign=middle;spacingLeft=4;spacingRight=4;overflow=hidden;rotatable=0;points=[];portConstraint=eastwest;part=1;fontSize=12;" parent="HH7dCh-cjH_V-bheNuH_-53" vertex="1" connectable="0">
          <mxGeometry width="56" height="30" as="geometry"/>
        </mxCell>
        <mxCell id="HH7dCh-cjH_V-bheNuH_-55" value="User Id" style="shape=partialRectangle;top=0;left=0;right=0;bottom=1;align=left;verticalAlign=middle;fillColor=none;spacingLeft=60;spacingRight=4;overflow=hidden;rotatable=0;points=[[0,0.5],[1,0.5]];portConstraint=eastwest;dropTarget=0;fontStyle=5;fontSize=12;" parent="HH7dCh-cjH_V-bheNuH_-52" vertex="1">
          <mxGeometry y="56" width="150" height="30" as="geometry"/>
        </mxCell>
        <mxCell id="HH7dCh-cjH_V-bheNuH_-56" value="FK1" style="shape=partialRectangle;fontStyle=1;top=0;left=0;bottom=0;fillColor=none;align=left;verticalAlign=middle;spacingLeft=4;spacingRight=4;overflow=hidden;rotatable=0;points=[];portConstraint=eastwest;part=1;fontSize=12;" parent="HH7dCh-cjH_V-bheNuH_-55" vertex="1" connectable="0">
          <mxGeometry width="56" height="30" as="geometry"/>
        </mxCell>
        <mxCell id="HH7dCh-cjH_V-bheNuH_-61" value="Trail Id" style="shape=partialRectangle;top=0;left=0;right=0;bottom=1;align=left;verticalAlign=middle;fillColor=none;spacingLeft=60;spacingRight=4;overflow=hidden;rotatable=0;points=[[0,0.5],[1,0.5]];portConstraint=eastwest;dropTarget=0;fontStyle=5;fontSize=12;" parent="HH7dCh-cjH_V-bheNuH_-52" vertex="1">
          <mxGeometry y="86" width="150" height="30" as="geometry"/>
        </mxCell>
        <mxCell id="HH7dCh-cjH_V-bheNuH_-62" value="FK2" style="shape=partialRectangle;fontStyle=1;top=0;left=0;bottom=0;fillColor=none;align=left;verticalAlign=middle;spacingLeft=4;spacingRight=4;overflow=hidden;rotatable=0;points=[];portConstraint=eastwest;part=1;fontSize=12;" parent="HH7dCh-cjH_V-bheNuH_-61" vertex="1" connectable="0">
          <mxGeometry width="56" height="30" as="geometry"/>
        </mxCell>
        <mxCell id="HH7dCh-cjH_V-bheNuH_-93" value="Amount" style="shape=partialRectangle;top=0;left=0;right=0;bottom=0;align=left;verticalAlign=middle;fillColor=none;spacingLeft=60;spacingRight=4;overflow=hidden;rotatable=0;points=[[0,0.5],[1,0.5]];portConstraint=eastwest;dropTarget=0;fontStyle=5;fontSize=12;" parent="HH7dCh-cjH_V-bheNuH_-52" vertex="1">
          <mxGeometry y="116" width="150" height="30" as="geometry"/>
        </mxCell>
        <mxCell id="HH7dCh-cjH_V-bheNuH_-94" value="" style="shape=partialRectangle;fontStyle=1;top=0;left=0;bottom=0;fillColor=none;align=left;verticalAlign=middle;spacingLeft=4;spacingRight=4;overflow=hidden;rotatable=0;points=[];portConstraint=eastwest;part=1;fontSize=12;" parent="HH7dCh-cjH_V-bheNuH_-93" vertex="1" connectable="0">
          <mxGeometry width="56" height="30" as="geometry"/>
        </mxCell>
        <mxCell id="HH7dCh-cjH_V-bheNuH_-97" value="Created Date" style="shape=partialRectangle;top=0;left=0;right=0;bottom=0;align=left;verticalAlign=middle;fillColor=none;spacingLeft=60;spacingRight=4;overflow=hidden;rotatable=0;points=[[0,0.5],[1,0.5]];portConstraint=eastwest;dropTarget=0;fontStyle=5;fontSize=12;" parent="HH7dCh-cjH_V-bheNuH_-52" vertex="1">
          <mxGeometry y="146" width="150" height="30" as="geometry"/>
        </mxCell>
        <mxCell id="HH7dCh-cjH_V-bheNuH_-98" value="" style="shape=partialRectangle;fontStyle=1;top=0;left=0;bottom=0;fillColor=none;align=left;verticalAlign=middle;spacingLeft=4;spacingRight=4;overflow=hidden;rotatable=0;points=[];portConstraint=eastwest;part=1;fontSize=12;" parent="HH7dCh-cjH_V-bheNuH_-97" vertex="1" connectable="0">
          <mxGeometry width="56" height="30" as="geometry"/>
        </mxCell>
        <mxCell id="HH7dCh-cjH_V-bheNuH_-99" value="Payment Status" style="shape=partialRectangle;top=0;left=0;right=0;bottom=0;align=left;verticalAlign=middle;fillColor=none;spacingLeft=60;spacingRight=4;overflow=hidden;rotatable=0;points=[[0,0.5],[1,0.5]];portConstraint=eastwest;dropTarget=0;fontStyle=5;fontSize=12;" parent="HH7dCh-cjH_V-bheNuH_-52" vertex="1">
          <mxGeometry y="176" width="150" height="30" as="geometry"/>
        </mxCell>
        <mxCell id="HH7dCh-cjH_V-bheNuH_-100" value="" style="shape=partialRectangle;fontStyle=1;top=0;left=0;bottom=0;fillColor=none;align=left;verticalAlign=middle;spacingLeft=4;spacingRight=4;overflow=hidden;rotatable=0;points=[];portConstraint=eastwest;part=1;fontSize=12;" parent="HH7dCh-cjH_V-bheNuH_-99" vertex="1" connectable="0">
          <mxGeometry width="56" height="30" as="geometry"/>
        </mxCell>
        <mxCell id="HH7dCh-cjH_V-bheNuH_-101" value="" style="edgeStyle=entityRelationEdgeStyle;fontSize=12;html=1;endArrow=ERoneToMany;entryX=0;entryY=0.5;entryDx=0;entryDy=0;exitX=1;exitY=0.5;exitDx=0;exitDy=0;" parent="WIyWlLk6GJQsqaUBKTNV-1" source="HH7dCh-cjH_V-bheNuH_-19" target="HH7dCh-cjH_V-bheNuH_-61" edge="1">
          <mxGeometry width="100" height="100" relative="1" as="geometry">
            <mxPoint x="250" y="570" as="sourcePoint"/>
            <mxPoint x="260" y="701" as="targetPoint"/>
          </mxGeometry>
        </mxCell>
        <mxCell id="HH7dCh-cjH_V-bheNuH_-103" value="" style="fontSize=12;html=1;endArrow=ERzeroToMany;startArrow=ERmandOne;rounded=0;edgeStyle=orthogonalEdgeStyle;exitX=0;exitY=0.5;exitDx=0;exitDy=0;entryX=1;entryY=0.5;entryDx=0;entryDy=0;" parent="WIyWlLk6GJQsqaUBKTNV-1" source="zkfFHV4jXpPFQw0GAbJ--59" target="HH7dCh-cjH_V-bheNuH_-55" edge="1">
          <mxGeometry width="100" height="100" relative="1" as="geometry">
            <mxPoint x="510" y="750" as="sourcePoint"/>
            <mxPoint x="260" y="750" as="targetPoint"/>
            <Array as="points">
              <mxPoint x="250" y="185"/>
              <mxPoint x="250" y="741"/>
            </Array>
          </mxGeometry>
        </mxCell>
        <mxCell id="HH7dCh-cjH_V-bheNuH_-107" value="QuestionsStatusByUser" style="swimlane;fontStyle=1;childLayout=stackLayout;horizontal=1;startSize=26;horizontalStack=0;resizeParent=1;resizeLast=0;collapsible=1;marginBottom=0;rounded=0;shadow=0;strokeWidth=1;" parent="WIyWlLk6GJQsqaUBKTNV-1" vertex="1">
          <mxGeometry x="640" y="770" width="160" height="134" as="geometry">
            <mxRectangle x="260" y="80" width="160" height="26" as="alternateBounds"/>
          </mxGeometry>
        </mxCell>
        <mxCell id="HH7dCh-cjH_V-bheNuH_-108" value="QuestionId" style="shape=partialRectangle;top=0;left=0;right=0;bottom=1;align=left;verticalAlign=top;fillColor=none;spacingLeft=40;spacingRight=4;overflow=hidden;rotatable=0;points=[[0,0.5],[1,0.5]];portConstraint=eastwest;dropTarget=0;rounded=0;shadow=0;strokeWidth=1;fontStyle=4" parent="HH7dCh-cjH_V-bheNuH_-107" vertex="1">
          <mxGeometry y="26" width="160" height="26" as="geometry"/>
        </mxCell>
        <mxCell id="HH7dCh-cjH_V-bheNuH_-109" value="FK1" style="shape=partialRectangle;top=0;left=0;bottom=0;fillColor=none;align=left;verticalAlign=top;spacingLeft=4;spacingRight=4;overflow=hidden;rotatable=0;points=[];portConstraint=eastwest;part=1;" parent="HH7dCh-cjH_V-bheNuH_-108" vertex="1" connectable="0">
          <mxGeometry width="36" height="26" as="geometry"/>
        </mxCell>
        <mxCell id="HH7dCh-cjH_V-bheNuH_-141" value="User Id" style="shape=partialRectangle;top=0;left=0;right=0;bottom=1;align=left;verticalAlign=top;fillColor=none;spacingLeft=40;spacingRight=4;overflow=hidden;rotatable=0;points=[[0,0.5],[1,0.5]];portConstraint=eastwest;dropTarget=0;rounded=0;shadow=0;strokeWidth=1;fontStyle=4" parent="HH7dCh-cjH_V-bheNuH_-107" vertex="1">
          <mxGeometry y="52" width="160" height="26" as="geometry"/>
        </mxCell>
        <mxCell id="HH7dCh-cjH_V-bheNuH_-142" value="FK2" style="shape=partialRectangle;top=0;left=0;bottom=0;fillColor=none;align=left;verticalAlign=top;spacingLeft=4;spacingRight=4;overflow=hidden;rotatable=0;points=[];portConstraint=eastwest;part=1;" parent="HH7dCh-cjH_V-bheNuH_-141" vertex="1" connectable="0">
          <mxGeometry width="36" height="26" as="geometry"/>
        </mxCell>
        <mxCell id="HH7dCh-cjH_V-bheNuH_-110" value="Question Attempt" style="shape=partialRectangle;top=0;left=0;right=0;bottom=0;align=left;verticalAlign=top;fillColor=none;spacingLeft=40;spacingRight=4;overflow=hidden;rotatable=0;points=[[0,0.5],[1,0.5]];portConstraint=eastwest;dropTarget=0;rounded=0;shadow=0;strokeWidth=1;" parent="HH7dCh-cjH_V-bheNuH_-107" vertex="1">
          <mxGeometry y="78" width="160" height="26" as="geometry"/>
        </mxCell>
        <mxCell id="HH7dCh-cjH_V-bheNuH_-111" value="" style="shape=partialRectangle;top=0;left=0;bottom=0;fillColor=none;align=left;verticalAlign=top;spacingLeft=4;spacingRight=4;overflow=hidden;rotatable=0;points=[];portConstraint=eastwest;part=1;" parent="HH7dCh-cjH_V-bheNuH_-110" vertex="1" connectable="0">
          <mxGeometry width="36" height="26" as="geometry"/>
        </mxCell>
        <mxCell id="HH7dCh-cjH_V-bheNuH_-112" value="Answer Status" style="shape=partialRectangle;top=0;left=0;right=0;bottom=0;align=left;verticalAlign=top;fillColor=none;spacingLeft=40;spacingRight=4;overflow=hidden;rotatable=0;points=[[0,0.5],[1,0.5]];portConstraint=eastwest;dropTarget=0;rounded=0;shadow=0;strokeWidth=1;" parent="HH7dCh-cjH_V-bheNuH_-107" vertex="1">
          <mxGeometry y="104" width="160" height="30" as="geometry"/>
        </mxCell>
        <mxCell id="HH7dCh-cjH_V-bheNuH_-113" value="" style="shape=partialRectangle;top=0;left=0;bottom=0;fillColor=none;align=left;verticalAlign=top;spacingLeft=4;spacingRight=4;overflow=hidden;rotatable=0;points=[];portConstraint=eastwest;part=1;" parent="HH7dCh-cjH_V-bheNuH_-112" vertex="1" connectable="0">
          <mxGeometry width="36" height="30" as="geometry"/>
        </mxCell>
        <mxCell id="HH7dCh-cjH_V-bheNuH_-124" value="Questions" style="swimlane;fontStyle=1;childLayout=stackLayout;horizontal=1;startSize=26;horizontalStack=0;resizeParent=1;resizeLast=0;collapsible=1;marginBottom=0;rounded=0;shadow=0;strokeWidth=1;" parent="WIyWlLk6GJQsqaUBKTNV-1" vertex="1">
          <mxGeometry x="270" y="860" width="160" height="278" as="geometry">
            <mxRectangle x="260" y="80" width="160" height="26" as="alternateBounds"/>
          </mxGeometry>
        </mxCell>
        <mxCell id="HH7dCh-cjH_V-bheNuH_-125" value="QuestionId" style="shape=partialRectangle;top=0;left=0;right=0;bottom=1;align=left;verticalAlign=top;fillColor=none;spacingLeft=40;spacingRight=4;overflow=hidden;rotatable=0;points=[[0,0.5],[1,0.5]];portConstraint=eastwest;dropTarget=0;rounded=0;shadow=0;strokeWidth=1;fontStyle=4" parent="HH7dCh-cjH_V-bheNuH_-124" vertex="1">
          <mxGeometry y="26" width="160" height="26" as="geometry"/>
        </mxCell>
        <mxCell id="HH7dCh-cjH_V-bheNuH_-126" value="PK1" style="shape=partialRectangle;top=0;left=0;bottom=0;fillColor=none;align=left;verticalAlign=top;spacingLeft=4;spacingRight=4;overflow=hidden;rotatable=0;points=[];portConstraint=eastwest;part=1;" parent="HH7dCh-cjH_V-bheNuH_-125" vertex="1" connectable="0">
          <mxGeometry width="36" height="26" as="geometry"/>
        </mxCell>
        <mxCell id="2JSC8jlmWxtpvu5nuCAl-5" value="Trail Id" style="shape=partialRectangle;top=0;left=0;right=0;bottom=1;align=left;verticalAlign=top;fillColor=none;spacingLeft=40;spacingRight=4;overflow=hidden;rotatable=0;points=[[0,0.5],[1,0.5]];portConstraint=eastwest;dropTarget=0;rounded=0;shadow=0;strokeWidth=1;fontStyle=4" vertex="1" parent="HH7dCh-cjH_V-bheNuH_-124">
          <mxGeometry y="52" width="160" height="26" as="geometry"/>
        </mxCell>
        <mxCell id="2JSC8jlmWxtpvu5nuCAl-6" value="Fk" style="shape=partialRectangle;top=0;left=0;bottom=0;fillColor=none;align=left;verticalAlign=top;spacingLeft=4;spacingRight=4;overflow=hidden;rotatable=0;points=[];portConstraint=eastwest;part=1;" vertex="1" connectable="0" parent="2JSC8jlmWxtpvu5nuCAl-5">
          <mxGeometry width="36" height="26" as="geometry"/>
        </mxCell>
        <mxCell id="HH7dCh-cjH_V-bheNuH_-127" value="QuestionName" style="shape=partialRectangle;top=0;left=0;right=0;bottom=0;align=left;verticalAlign=top;fillColor=none;spacingLeft=40;spacingRight=4;overflow=hidden;rotatable=0;points=[[0,0.5],[1,0.5]];portConstraint=eastwest;dropTarget=0;rounded=0;shadow=0;strokeWidth=1;" parent="HH7dCh-cjH_V-bheNuH_-124" vertex="1">
          <mxGeometry y="78" width="160" height="28" as="geometry"/>
        </mxCell>
        <mxCell id="HH7dCh-cjH_V-bheNuH_-128" value="" style="shape=partialRectangle;top=0;left=0;bottom=0;fillColor=none;align=left;verticalAlign=top;spacingLeft=4;spacingRight=4;overflow=hidden;rotatable=0;points=[];portConstraint=eastwest;part=1;" parent="HH7dCh-cjH_V-bheNuH_-127" vertex="1" connectable="0">
          <mxGeometry width="36" height="28" as="geometry"/>
        </mxCell>
        <mxCell id="HH7dCh-cjH_V-bheNuH_-129" value="Option A" style="shape=partialRectangle;top=0;left=0;right=0;bottom=0;align=left;verticalAlign=top;fillColor=none;spacingLeft=40;spacingRight=4;overflow=hidden;rotatable=0;points=[[0,0.5],[1,0.5]];portConstraint=eastwest;dropTarget=0;rounded=0;shadow=0;strokeWidth=1;" parent="HH7dCh-cjH_V-bheNuH_-124" vertex="1">
          <mxGeometry y="106" width="160" height="26" as="geometry"/>
        </mxCell>
        <mxCell id="HH7dCh-cjH_V-bheNuH_-130" value="" style="shape=partialRectangle;top=0;left=0;bottom=0;fillColor=none;align=left;verticalAlign=top;spacingLeft=4;spacingRight=4;overflow=hidden;rotatable=0;points=[];portConstraint=eastwest;part=1;" parent="HH7dCh-cjH_V-bheNuH_-129" vertex="1" connectable="0">
          <mxGeometry width="36" height="26" as="geometry"/>
        </mxCell>
        <mxCell id="HH7dCh-cjH_V-bheNuH_-131" value="Option B" style="shape=partialRectangle;top=0;left=0;right=0;bottom=0;align=left;verticalAlign=top;fillColor=none;spacingLeft=40;spacingRight=4;overflow=hidden;rotatable=0;points=[[0,0.5],[1,0.5]];portConstraint=eastwest;dropTarget=0;rounded=0;shadow=0;strokeWidth=1;" parent="HH7dCh-cjH_V-bheNuH_-124" vertex="1">
          <mxGeometry y="132" width="160" height="26" as="geometry"/>
        </mxCell>
        <mxCell id="HH7dCh-cjH_V-bheNuH_-132" value="" style="shape=partialRectangle;top=0;left=0;bottom=0;fillColor=none;align=left;verticalAlign=top;spacingLeft=4;spacingRight=4;overflow=hidden;rotatable=0;points=[];portConstraint=eastwest;part=1;" parent="HH7dCh-cjH_V-bheNuH_-131" vertex="1" connectable="0">
          <mxGeometry width="36" height="26" as="geometry"/>
        </mxCell>
        <mxCell id="HH7dCh-cjH_V-bheNuH_-133" value="Option C" style="shape=partialRectangle;top=0;left=0;right=0;bottom=0;align=left;verticalAlign=top;fillColor=none;spacingLeft=40;spacingRight=4;overflow=hidden;rotatable=0;points=[[0,0.5],[1,0.5]];portConstraint=eastwest;dropTarget=0;rounded=0;shadow=0;strokeWidth=1;" parent="HH7dCh-cjH_V-bheNuH_-124" vertex="1">
          <mxGeometry y="158" width="160" height="30" as="geometry"/>
        </mxCell>
        <mxCell id="HH7dCh-cjH_V-bheNuH_-134" value="" style="shape=partialRectangle;top=0;left=0;bottom=0;fillColor=none;align=left;verticalAlign=top;spacingLeft=4;spacingRight=4;overflow=hidden;rotatable=0;points=[];portConstraint=eastwest;part=1;" parent="HH7dCh-cjH_V-bheNuH_-133" vertex="1" connectable="0">
          <mxGeometry width="36" height="29.999999999999996" as="geometry"/>
        </mxCell>
        <mxCell id="HH7dCh-cjH_V-bheNuH_-135" value="Option D" style="shape=partialRectangle;top=0;left=0;right=0;bottom=0;align=left;verticalAlign=top;fillColor=none;spacingLeft=40;spacingRight=4;overflow=hidden;rotatable=0;points=[[0,0.5],[1,0.5]];portConstraint=eastwest;dropTarget=0;rounded=0;shadow=0;strokeWidth=1;" parent="HH7dCh-cjH_V-bheNuH_-124" vertex="1">
          <mxGeometry y="188" width="160" height="30" as="geometry"/>
        </mxCell>
        <mxCell id="HH7dCh-cjH_V-bheNuH_-136" value="" style="shape=partialRectangle;top=0;left=0;bottom=0;fillColor=none;align=left;verticalAlign=top;spacingLeft=4;spacingRight=4;overflow=hidden;rotatable=0;points=[];portConstraint=eastwest;part=1;" parent="HH7dCh-cjH_V-bheNuH_-135" vertex="1" connectable="0">
          <mxGeometry width="36" height="29.999999999999996" as="geometry"/>
        </mxCell>
        <mxCell id="HH7dCh-cjH_V-bheNuH_-137" value="Correct Answer" style="shape=partialRectangle;top=0;left=0;right=0;bottom=0;align=left;verticalAlign=top;fillColor=none;spacingLeft=40;spacingRight=4;overflow=hidden;rotatable=0;points=[[0,0.5],[1,0.5]];portConstraint=eastwest;dropTarget=0;rounded=0;shadow=0;strokeWidth=1;" parent="HH7dCh-cjH_V-bheNuH_-124" vertex="1">
          <mxGeometry y="218" width="160" height="30" as="geometry"/>
        </mxCell>
        <mxCell id="HH7dCh-cjH_V-bheNuH_-138" value="" style="shape=partialRectangle;top=0;left=0;bottom=0;fillColor=none;align=left;verticalAlign=top;spacingLeft=4;spacingRight=4;overflow=hidden;rotatable=0;points=[];portConstraint=eastwest;part=1;" parent="HH7dCh-cjH_V-bheNuH_-137" vertex="1" connectable="0">
          <mxGeometry width="36" height="29.999999999999996" as="geometry"/>
        </mxCell>
        <mxCell id="HH7dCh-cjH_V-bheNuH_-139" value="Question Status" style="shape=partialRectangle;top=0;left=0;right=0;bottom=0;align=left;verticalAlign=top;fillColor=none;spacingLeft=40;spacingRight=4;overflow=hidden;rotatable=0;points=[[0,0.5],[1,0.5]];portConstraint=eastwest;dropTarget=0;rounded=0;shadow=0;strokeWidth=1;" parent="HH7dCh-cjH_V-bheNuH_-124" vertex="1">
          <mxGeometry y="248" width="160" height="30" as="geometry"/>
        </mxCell>
        <mxCell id="HH7dCh-cjH_V-bheNuH_-140" value="" style="shape=partialRectangle;top=0;left=0;bottom=0;fillColor=none;align=left;verticalAlign=top;spacingLeft=4;spacingRight=4;overflow=hidden;rotatable=0;points=[];portConstraint=eastwest;part=1;" parent="HH7dCh-cjH_V-bheNuH_-139" vertex="1" connectable="0">
          <mxGeometry width="36" height="29.999999999999996" as="geometry"/>
        </mxCell>
        <mxCell id="HH7dCh-cjH_V-bheNuH_-145" value="" style="fontSize=12;html=1;endArrow=ERzeroToMany;startArrow=ERmandOne;rounded=0;edgeStyle=orthogonalEdgeStyle;exitX=1;exitY=0.5;exitDx=0;exitDy=0;entryX=1;entryY=0.5;entryDx=0;entryDy=0;" parent="WIyWlLk6GJQsqaUBKTNV-1" source="zkfFHV4jXpPFQw0GAbJ--57" target="HH7dCh-cjH_V-bheNuH_-141" edge="1">
          <mxGeometry width="100" height="100" relative="1" as="geometry">
            <mxPoint x="720" y="140" as="sourcePoint"/>
            <mxPoint x="820" y="830" as="targetPoint"/>
            <Array as="points">
              <mxPoint x="810" y="159"/>
              <mxPoint x="810" y="740"/>
              <mxPoint x="820" y="740"/>
              <mxPoint x="820" y="835"/>
            </Array>
          </mxGeometry>
        </mxCell>
        <mxCell id="2JSC8jlmWxtpvu5nuCAl-0" value="" style="fontSize=12;html=1;endArrow=ERoneToMany;entryX=0;entryY=0.5;entryDx=0;entryDy=0;exitX=0;exitY=0.5;exitDx=0;exitDy=0;" edge="1" parent="WIyWlLk6GJQsqaUBKTNV-1" source="HH7dCh-cjH_V-bheNuH_-19" target="HH7dCh-cjH_V-bheNuH_-11">
          <mxGeometry width="100" height="100" relative="1" as="geometry">
            <mxPoint x="10" y="398" as="sourcePoint"/>
            <mxPoint x="350" y="402" as="targetPoint"/>
            <Array as="points">
              <mxPoint x="10" y="390"/>
              <mxPoint x="10" y="450"/>
            </Array>
          </mxGeometry>
        </mxCell>
        <mxCell id="2JSC8jlmWxtpvu5nuCAl-1" value="" style="edgeStyle=entityRelationEdgeStyle;fontSize=12;html=1;endArrow=ERzeroToMany;startArrow=ERmandOne;exitX=1;exitY=0.5;exitDx=0;exitDy=0;entryX=0;entryY=0.5;entryDx=0;entryDy=0;" edge="1" parent="WIyWlLk6GJQsqaUBKTNV-1" source="HH7dCh-cjH_V-bheNuH_-125" target="HH7dCh-cjH_V-bheNuH_-108">
          <mxGeometry width="100" height="100" relative="1" as="geometry">
            <mxPoint x="500" y="950" as="sourcePoint"/>
            <mxPoint x="600" y="850" as="targetPoint"/>
          </mxGeometry>
        </mxCell>
      </root>
    </mxGraphModel>
  </diagram>
  <diagram id="D9wKUKE2IplUQXyRE2nf" name="Page-2">
    <mxGraphModel dx="868" dy="433" grid="1" gridSize="10" guides="1" tooltips="1" connect="1" arrows="1" fold="1" page="1" pageScale="1" pageWidth="850" pageHeight="1100" math="0" shadow="0">
      <root>
        <mxCell id="p4QsIfbAf8v95KRSQmYi-0"/>
        <mxCell id="p4QsIfbAf8v95KRSQmYi-1" parent="p4QsIfbAf8v95KRSQmYi-0"/>
      </root>
    </mxGraphModel>
  </diagram>
</mxfile>
